<svg width="50" height="50" viewBox="0 0 50 50" fill="none" xmlns="http://www.w3.org/2000/svg">
<path d="M37.5 25L38.9731 26.4731L40.4462 25L38.9731 23.5269L37.5 25ZM26.4731 38.9731L38.9731 26.4731L36.0269 23.5269L23.5269 36.0269L26.4731 38.9731ZM38.9731 23.5269L26.4731 11.0269L23.5269 13.9731L36.0269 26.4731L38.9731 23.5269Z" fill="white"/>
<path d="M25 25L26.4731 26.4731L27.9463 25L26.4731 23.5269L25 25ZM13.9731 38.9731L26.4731 26.4731L23.5269 23.5269L11.0269 36.0269L13.9731 38.9731ZM26.4731 23.5269L13.9731 11.0269L11.0269 13.9731L23.5269 26.4731L26.4731 23.5269Z" fill="white"/>
</svg>
