<svg width="48" height="46" viewBox="0 0 48 46" fill="none" xmlns="http://www.w3.org/2000/svg">
<path d="M23.7598 9.875V6.125" stroke="white" stroke-width="2" stroke-linecap="round"/>
<path fill-rule="evenodd" clip-rule="evenodd" d="M43.3429 15.5H4.17627V21.125C4.911 21.125 5.27836 21.125 5.60109 21.1769C6.94169 21.3929 8.06942 22.2592 8.58048 23.4652C8.70351 23.7556 8.78319 24.0989 8.94258 24.7857L10.6465 32.1269C11.3 34.9426 11.6267 36.3504 12.7007 37.1752C13.7746 38 15.2809 38 18.2933 38H29.2259C32.2384 38 33.7446 38 34.8185 37.1752C35.8925 36.3504 36.2193 34.9426 36.8728 32.1269L38.5765 24.7857V24.7856C38.736 24.0989 38.8157 23.7556 38.9386 23.4652C39.4498 22.2592 40.5776 21.3929 41.9181 21.1769C42.2408 21.125 42.6082 21.125 43.3429 21.125V15.5ZM18.8371 24.5667C18.6593 23.5452 17.6503 22.8552 16.5835 23.0255C15.5166 23.1957 14.7959 24.1617 14.9738 25.1832L15.9529 30.8082C16.1307 31.8297 17.1397 32.5197 18.2066 32.3495C19.2734 32.1792 19.9941 31.2132 19.8163 30.1917L18.8371 24.5667ZM32.5453 25.1832C32.7231 24.1617 32.0024 23.1957 30.9355 23.0255C29.8686 22.8552 28.8597 23.5452 28.6819 24.5667L27.7027 30.1917C27.5249 31.2132 28.2456 32.1792 29.3125 32.3495C30.3794 32.5197 31.3883 31.8297 31.5661 30.8082L32.5453 25.1832Z" fill="white"/>
</svg>
