<svg width="41" height="34" viewBox="0 0 41 34" fill="none" xmlns="http://www.w3.org/2000/svg">
<path d="M32.3403 8.52472C33.4594 9.92596 33.4594 11.8766 33.4594 15.7779C33.4594 19.6791 33.4594 21.6298 32.3403 23.0311C31.8558 23.6376 31.2333 24.1584 30.5083 24.5639C29.0452 25.3818 27.081 25.4851 23.4992 25.4982V25.5001L21.6639 28.5711C21.0521 29.5948 19.3061 29.5948 18.6944 28.5711L16.8591 25.5001V25.4982C13.2772 25.4851 11.3131 25.3818 9.84999 24.5639C9.12496 24.1584 8.50244 23.6376 8.01798 23.0311C6.89893 21.6298 6.89893 19.6791 6.89893 15.7779C6.89893 11.8766 6.89893 9.92596 8.01798 8.52472C8.50244 7.91811 9.12496 7.39728 9.84999 6.99194C11.5248 6.05566 13.8562 6.05566 18.5191 6.05566H21.8392C26.502 6.05566 28.8335 6.05566 30.5083 6.99194C31.2333 7.39728 31.8558 7.91811 32.3403 8.52472Z" fill="#7E869E" fill-opacity="0.25" stroke="white" stroke-width="1.2" stroke-linecap="round" stroke-linejoin="round"/>
<path d="M15.1992 13H25.1594" stroke="white" stroke-width="1.2" stroke-linecap="round" stroke-linejoin="round"/>
<path d="M15.1992 18.5557H20.1793" stroke="white" stroke-width="1.2" stroke-linecap="round" stroke-linejoin="round"/>
</svg>
