<svg width="47" height="46" viewBox="0 0 47 46" fill="none" xmlns="http://www.w3.org/2000/svg">
<path d="M8.71572 26.5778L22.3313 38.824C22.8003 39.2456 23.0347 39.4566 23.3112 39.5085C23.4358 39.532 23.5639 39.532 23.6884 39.5085C23.9649 39.4566 24.1993 39.2456 24.6684 38.824L38.2839 26.5778C42.1148 23.1323 42.5799 17.4623 39.358 13.4863L38.7523 12.7387C34.8979 7.98223 27.1611 8.77991 24.4529 14.213C24.0703 14.9804 22.9294 14.9804 22.5467 14.213C19.8385 8.77991 12.1018 7.98223 8.24743 12.7387L7.64162 13.4863C4.41969 17.4623 4.88489 23.1323 8.71572 26.5778Z" fill="white" stroke="white" stroke-width="2"/>
</svg>
