<svg width="24" height="21" viewBox="0 0 24 21" fill="none" xmlns="http://www.w3.org/2000/svg">
<path d="M2.56324 11.3853L11.254 19.5495C11.5534 19.8306 11.703 19.9712 11.8795 20.0058C11.959 20.0215 12.0408 20.0215 12.1203 20.0058C12.2968 19.9712 12.4464 19.8306 12.7458 19.5495L21.4365 11.3853C23.8818 9.08834 24.1786 5.30834 22.1222 2.65768L21.7355 2.15927C19.2753 -1.01168 14.3369 -0.479896 12.6083 3.14215C12.364 3.65379 11.6358 3.65379 11.3915 3.14215C9.6629 -0.479896 4.72455 -1.01168 2.26433 2.15928L1.87764 2.65768C-0.178911 5.30834 0.118026 9.08834 2.56324 11.3853Z" fill="#21ABA5"/>
</svg>
