<svg width="50" height="50" viewBox="0 0 50 50" fill="none" xmlns="http://www.w3.org/2000/svg">
<path d="M25 10.4167V6.25" stroke="white" stroke-width="2" stroke-linecap="round"/>
<path fill-rule="evenodd" clip-rule="evenodd" d="M45.8337 16.6666H4.16699V22.9166C4.94862 22.9166 5.33943 22.9166 5.68276 22.9743C7.10893 23.2143 8.30864 24.1768 8.85233 25.5168C8.9832 25.8395 9.06797 26.221 9.23753 26.9841L11.0502 35.141C11.7454 38.2695 12.093 39.8337 13.2355 40.7502C14.378 41.6666 15.9804 41.6666 19.1851 41.6666H30.8155C34.0203 41.6666 35.6226 41.6666 36.7651 40.7502C37.9076 39.8337 38.2553 38.2695 38.9505 35.141L40.763 26.9841V26.9839C40.9326 26.221 41.0174 25.8395 41.1482 25.5168C41.692 24.1768 42.8918 23.2143 44.3178 22.9743C44.6612 22.9166 45.052 22.9166 45.8337 22.9166V16.6666ZM19.7636 26.7408C19.5745 25.6058 18.5011 24.8391 17.3662 25.0283C16.2312 25.2175 15.4645 26.2908 15.6537 27.4258L16.6953 33.6758C16.8845 34.8108 17.9579 35.5775 19.0928 35.3883C20.2278 35.1991 20.9945 34.1258 20.8053 32.9908L19.7636 26.7408ZM34.3468 27.4258C34.536 26.2908 33.7693 25.2175 32.6343 25.0283C31.4993 24.8391 30.426 25.6058 30.2368 26.7408L29.1951 32.9908C29.006 34.1258 29.7726 35.1991 30.9076 35.3883C32.0426 35.5775 33.116 34.8108 33.3051 33.6758L34.3468 27.4258Z" fill="white"/>
</svg>
