<svg width="50" height="50" viewBox="0 0 50 50" fill="none" xmlns="http://www.w3.org/2000/svg">
<path d="M9.2719 28.9754L23.7565 42.5823C24.2555 43.0509 24.5049 43.2852 24.799 43.3429C24.9315 43.369 25.0678 43.369 25.2003 43.3429C25.4945 43.2852 25.7438 43.0509 26.2428 42.5823L40.7274 28.9754C44.8028 25.1471 45.2976 18.8471 41.8701 14.4293L41.2257 13.5987C37.1253 8.31374 28.8947 9.20005 26.0136 15.2368C25.6065 16.0895 24.3928 16.0895 23.9857 15.2368C21.1047 9.20005 12.8741 8.31374 8.77372 13.5987L8.12924 14.4293C4.70165 18.8471 5.19655 25.1471 9.2719 28.9754Z" fill="white" stroke="white" stroke-width="2"/>
</svg>
