<svg width="139" height="23" viewBox="0 0 139 23" fill="none" xmlns="http://www.w3.org/2000/svg">
<g clip-path="url(#clip0_102_2)">
<path d="M50.8709 4.87088C49.3372 6.40455 48.3827 8.42257 48.1702 10.581C47.9576 12.7396 48.5 14.905 49.705 16.7084C50.91 18.5119 52.703 19.8417 54.7786 20.4714C56.8542 21.1009 59.0838 20.9914 61.0876 20.1614C63.0915 19.3314 64.7455 17.8322 65.768 15.9194C66.7904 14.0065 67.118 11.7983 66.6949 9.671C66.2718 7.54375 65.1241 5.629 63.4474 4.25303C61.7708 2.87705 59.669 2.125 57.5 2.125" stroke="#CCD2E3" stroke-width="2" stroke-linecap="round"/>
<path d="M57.5 11.5L51.25 5.25" stroke="#CCD2E3" stroke-width="2" stroke-linecap="round"/>
<path d="M57.5 2.125V4.20833" stroke="#CCD2E3" stroke-width="2" stroke-linecap="round"/>
<path d="M66.8751 11.5H64.7917" stroke="#CCD2E3" stroke-width="2" stroke-linecap="round"/>
<path d="M57.5 18.7917V20.875" stroke="#CCD2E3" stroke-width="2" stroke-linecap="round"/>
<path d="M50.2083 11.5H48.125" stroke="#CCD2E3" stroke-width="2" stroke-linecap="round"/>
<path d="M91.8709 4.87088C90.3372 6.40455 89.3827 8.42257 89.1702 10.581C88.9576 12.7396 89.5 14.905 90.705 16.7084C91.91 18.5119 93.703 19.8417 95.7786 20.4714C97.8542 21.1009 100.084 20.9914 102.088 20.1614C104.092 19.3314 105.746 17.8322 106.768 15.9194C107.79 14.0065 108.118 11.7983 107.695 9.671C107.272 7.54375 106.124 5.629 104.447 4.25303C102.771 2.87705 100.669 2.125 98.5 2.125" stroke="#CCD2E3" stroke-width="2" stroke-linecap="round"/>
<path d="M98.5 11.5L92.25 5.25" stroke="#CCD2E3" stroke-width="2" stroke-linecap="round"/>
<path d="M98.5 2.125V4.20833" stroke="#CCD2E3" stroke-width="2" stroke-linecap="round"/>
<path d="M107.875 11.5H105.792" stroke="#CCD2E3" stroke-width="2" stroke-linecap="round"/>
<path d="M98.5 18.7917V20.875" stroke="#CCD2E3" stroke-width="2" stroke-linecap="round"/>
<path d="M91.2083 11.5H89.125" stroke="#CCD2E3" stroke-width="2" stroke-linecap="round"/>
<g filter="url(#filter0_d_102_2)">
<path d="M8.496 20.48C6.976 20.48 5.656 20.12 4.536 19.4C3.432 18.664 2.576 17.68 1.968 16.448C1.36 15.2 1.056 13.824 1.056 12.32C1.056 11.12 1.248 10 1.632 8.96C2.016 7.904 2.552 6.984 3.24 6.2C3.928 5.416 4.72 4.8 5.616 4.352C6.512 3.904 7.472 3.68 8.496 3.68C9.824 3.68 10.968 3.872 11.928 4.256C12.888 4.624 13.584 5.072 14.016 5.6C14.32 5.968 14.496 6.48 14.544 7.136C14.592 7.792 14.616 8.48 14.616 9.2H14.136C13.832 7.632 13.264 6.48 12.432 5.744C11.616 5.008 10.544 4.64 9.216 4.64C8.176 4.64 7.216 4.88 6.336 5.36C5.456 5.84 4.752 6.64 4.224 7.76C3.712 8.88 3.456 10.4 3.456 12.32C3.456 13.216 3.56 14.096 3.768 14.96C3.992 15.808 4.336 16.576 4.8 17.264C5.264 17.952 5.856 18.504 6.576 18.92C7.312 19.32 8.192 19.52 9.216 19.52C10.416 19.52 11.448 19.232 12.312 18.656C13.176 18.08 13.944 17.248 14.616 16.16L15.096 16.52C14.328 18.024 13.392 19.064 12.288 19.64C11.184 20.2 9.92 20.48 8.496 20.48ZM18.5049 20V7.04C18.5049 6.32 18.4009 5.744 18.1929 5.312C18.0009 4.864 17.5449 4.64 16.8249 4.64H16.3449V4.16H18.5049C19.0649 4.16 19.4969 4.232 19.8009 4.376C20.1209 4.52 20.3449 4.8 20.4729 5.216C20.6009 5.632 20.6649 6.24 20.6649 7.04V11.36H27.8649V4.16H30.0249V17.12C30.0249 17.84 30.1209 18.424 30.3129 18.872C30.5209 19.304 30.9849 19.52 31.7049 19.52H32.1849V20H30.0249C29.4649 20 29.0249 19.928 28.7049 19.784C28.4009 19.64 28.1849 19.36 28.0569 18.944C27.9289 18.528 27.8649 17.92 27.8649 17.12V12.32H20.6649V20H18.5049ZM45.6816 20.24C45.1376 20.24 44.6336 20.136 44.1696 19.928C43.7216 19.704 43.2736 19.344 42.8256 18.848C42.3936 18.336 41.9136 17.64 41.3856 16.76L38.9856 12.68H37.3056V20H35.1456V7.04C35.1456 6.32 35.0416 5.744 34.8336 5.312C34.6416 4.864 34.1856 4.64 33.4656 4.64H32.9856V4.16H39.2256C39.6256 4.16 40.0896 4.192 40.6176 4.256C41.1456 4.304 41.6736 4.408 42.2016 4.568C42.7456 4.728 43.2416 4.968 43.6896 5.288C44.1536 5.608 44.5216 6.024 44.7936 6.536C45.0816 7.048 45.2256 7.688 45.2256 8.456C45.2256 9.368 45.0256 10.104 44.6256 10.664C44.2416 11.208 43.7536 11.624 43.1616 11.912C42.5696 12.2 41.9776 12.416 41.3856 12.56L43.9056 16.76C44.5136 17.784 45.0576 18.488 45.5376 18.872C46.0176 19.24 46.5536 19.456 47.1456 19.52V20C47.0176 20.064 46.8176 20.12 46.5456 20.168C46.2896 20.216 46.0016 20.24 45.6816 20.24ZM37.3056 11.84H39.0336C39.3856 11.84 39.7776 11.776 40.2096 11.648C40.6416 11.52 41.0576 11.328 41.4576 11.072C41.8576 10.8 42.1856 10.448 42.4416 10.016C42.6976 9.584 42.8256 9.056 42.8256 8.432C42.8256 7.808 42.6976 7.28 42.4416 6.848C42.1856 6.416 41.8576 6.064 41.4576 5.792C41.0576 5.52 40.6416 5.32 40.2096 5.192C39.7776 5.064 39.3856 5 39.0336 5C38.7776 5 38.4816 5.024 38.1456 5.072C37.8256 5.12 37.5456 5.176 37.3056 5.24V11.84ZM84.795 20.24L74.475 7.4V20H73.515V7.04C73.515 6.32 73.363 5.744 73.059 5.312C72.755 4.864 72.187 4.64 71.355 4.64H71.115V4.16H72.675C73.459 4.16 74.099 4.288 74.595 4.544C75.107 4.8 75.547 5.152 75.915 5.6L84.315 16.04V4.16H85.275V20.24H84.795ZM126.233 20.12C125.881 20.12 125.449 20.056 124.937 19.928C124.425 19.784 123.921 19.496 123.425 19.064C122.929 18.616 122.505 17.928 122.153 17L121.553 15.44H114.833L112.913 20H111.833L118.553 4.16H119.273L124.553 17C124.937 17.896 125.305 18.528 125.657 18.896C126.009 19.248 126.521 19.456 127.193 19.52V20C127.065 20.032 126.913 20.056 126.737 20.072C126.577 20.104 126.409 20.12 126.233 20.12ZM115.193 14.48H121.073L118.193 7.52L115.193 14.48ZM132.923 20.48C132.123 20.48 131.395 20.376 130.739 20.168C130.099 19.96 129.507 19.664 128.963 19.28C128.435 18.896 127.947 18.44 127.499 17.912L127.883 17.48C128.491 18.152 129.155 18.664 129.875 19.016C130.595 19.352 131.411 19.52 132.323 19.52C132.963 19.52 133.555 19.384 134.099 19.112C134.643 18.824 135.083 18.392 135.419 17.816C135.755 17.24 135.923 16.488 135.923 15.56C135.923 14.712 135.763 14.016 135.443 13.472C135.123 12.928 134.723 12.52 134.243 12.248C133.763 11.976 133.283 11.84 132.803 11.84C132.323 11.84 131.939 11.856 131.651 11.888C131.363 11.904 131.091 11.936 130.835 11.984C130.595 12.032 130.291 12.104 129.923 12.2L129.299 11.192L135.803 5.12H131.363C130.403 5.12 129.659 5.328 129.131 5.744C128.619 6.16 128.363 6.792 128.363 7.64H127.883V6.08C127.883 5.76 127.939 5.456 128.051 5.168C128.163 4.864 128.363 4.624 128.651 4.448C128.955 4.256 129.379 4.16 129.923 4.16H137.555V5.12L131.123 11.12C131.539 11.008 131.963 10.944 132.395 10.928C132.843 10.896 133.139 10.88 133.283 10.88C133.635 10.88 134.091 10.944 134.651 11.072C135.211 11.184 135.771 11.408 136.331 11.744C136.891 12.08 137.363 12.552 137.747 13.16C138.131 13.768 138.323 14.568 138.323 15.56C138.323 16.616 138.131 17.472 137.747 18.128C137.363 18.768 136.875 19.264 136.283 19.616C135.707 19.952 135.115 20.176 134.507 20.288C133.899 20.416 133.371 20.48 132.923 20.48Z" fill="white"/>
</g>
</g>
<defs>
<filter id="filter0_d_102_2" x="-2.944" y="3.67999" width="145.267" height="24.8" filterUnits="userSpaceOnUse" color-interpolation-filters="sRGB">
<feFlood flood-opacity="0" result="BackgroundImageFix"/>
<feColorMatrix in="SourceAlpha" type="matrix" values="0 0 0 0 0 0 0 0 0 0 0 0 0 0 0 0 0 0 127 0" result="hardAlpha"/>
<feOffset dy="4"/>
<feGaussianBlur stdDeviation="2"/>
<feComposite in2="hardAlpha" operator="out"/>
<feColorMatrix type="matrix" values="0 0 0 0 0 0 0 0 0 0 0 0 0 0 0 0 0 0 0.25 0"/>
<feBlend mode="normal" in2="BackgroundImageFix" result="effect1_dropShadow_102_2"/>
<feBlend mode="normal" in="SourceGraphic" in2="effect1_dropShadow_102_2" result="shape"/>
</filter>
<clipPath id="clip0_102_2">
<rect width="139" height="23" fill="white"/>
</clipPath>
</defs>
</svg>
