<svg width="35" height="36" viewBox="0 0 35 36" fill="none" xmlns="http://www.w3.org/2000/svg">
<path d="M17.5 19.8814C19.9162 19.8814 21.875 17.9227 21.875 15.5064C21.875 13.0902 19.9162 11.1314 17.5 11.1314C15.0838 11.1314 13.125 13.0902 13.125 15.5064C13.125 17.9227 15.0838 19.8814 17.5 19.8814Z" stroke="white" stroke-width="2" stroke-linecap="round"/>
<path d="M17.5 31.5481C24.7487 31.5481 30.625 25.6718 30.625 18.4231C30.625 11.1743 24.7487 5.29807 17.5 5.29807C10.2513 5.29807 4.375 11.1743 4.375 18.4231C4.375 25.6718 10.2513 31.5481 17.5 31.5481Z" stroke="white" stroke-width="2"/>
<path d="M25.9299 28.3782C26.1153 28.2764 26.2031 28.0561 26.1246 27.8596C25.5623 26.4505 24.479 25.2093 23.0146 24.3048C21.4326 23.3277 19.4941 22.7981 17.5 22.7981C15.5059 22.7981 13.5675 23.3277 11.9854 24.3048C10.5211 25.2093 9.43776 26.4505 8.8754 27.8596C8.79701 28.0561 8.8847 28.2764 9.07009 28.3782C14.3204 31.2608 20.6796 31.2608 25.9299 28.3782Z" fill="white"/>
</svg>
