<svg width="24" height="22" viewBox="0 0 24 22" fill="none" xmlns="http://www.w3.org/2000/svg">
<path d="M2.56324 12.3853L11.254 20.5495C11.5534 20.8306 11.703 20.9712 11.8795 21.0058C11.959 21.0215 12.0408 21.0215 12.1203 21.0058C12.2968 20.9712 12.4464 20.8306 12.7458 20.5495L21.4365 12.3853C23.8818 10.0883 24.1786 6.30834 22.1221 3.65768L21.7355 3.15927C19.2753 -0.0116843 14.3369 0.520104 12.6083 4.14215C12.364 4.65379 11.6358 4.65379 11.3915 4.14215C9.6629 0.520104 4.72455 -0.0116843 2.26433 3.15928L1.87764 3.65768C-0.178911 6.30834 0.118026 10.0883 2.56324 12.3853Z" stroke="black"/>
</svg>
