<svg width="40" height="40" viewBox="0 0 40 40" fill="none" xmlns="http://www.w3.org/2000/svg">
<path d="M30 20L31.1785 21.1785L32.357 20L31.1785 18.8215L30 20ZM21.1785 31.1785L31.1785 21.1785L28.8215 18.8215L18.8215 28.8215L21.1785 31.1785ZM31.1785 18.8215L21.1785 8.82153L18.8215 11.1786L28.8215 21.1785L31.1785 18.8215Z" fill="black"/>
<path d="M20.0001 20L21.1786 21.1785L22.357 20L21.1786 18.8215L20.0001 20ZM11.1786 31.1785L21.1786 21.1785L18.8216 18.8215L8.82153 28.8215L11.1786 31.1785ZM21.1786 18.8215L11.1786 8.82153L8.82153 11.1786L18.8216 21.1785L21.1786 18.8215Z" fill="black"/>
</svg>
